{"title":"Lupe Fiasco Ft. Ed Sheeran - Old School Love [Music Video] 1080p","uid":9399601,"size":137774107,"categoryP":"video","categoryS":"music_videos","magnet":"?xt=urn:btih:f1756a9041d58ea120a6e5184fb7b7fdbed400f9&amp;dn=Lupe+Fiasco+Ft.+Ed+Sheeran+-+Old+School+Love+%5BMusic+Video%5D+1080p&amp;tr=udp%3A%2F%2Ftracker.openbittorrent.com%3A80&amp;tr=udp%3A%2F%2Fopen.demonii.com%3A1337&amp;tr=udp%3A%2F%2Ftracker.coppersurfer.tk%3A6969&amp;tr=udp%3A%2F%2Fexodus.desync.com%3A6969","seeders":2,"leechers":0,"uploader":"Sbyky","files":1,"time":1388048177,"description":"\n\nGeneral\nComplete name                            : Lupe Fiasco Ft. Ed Sheeran - Old School Love [Music Video] 1080p [Sbyky].mp4\nFormat                                   : MPEG-4\nFormat profile                           : Base Media\nCodec ID                                 : isom\nFile size                                : 131 MiB\nDuration                                 : 4mn 41s\nOverall bit rate mode                    : Variable\nOverall bit rate                         : 3 922 Kbps\nEncoded date                             : UTC 2013-12-11 21:59:44\nTagged date                              : UTC 2013-12-11 21:59:44\n\nVideo\nID                                       : 1\nFormat                                   : AVC\nFormat/Info                              : Advanced Video Codec\nFormat profile                           : &lt;a class=&quot;__cf_email__&quot; href=&quot;/cdn-cgi/l/email-protection&quot; data-cfemail=&quot;6d25040a052d2159435d&quot;&gt;[email&amp;#160;protected]&lt;/a&gt;&lt;script cf-hash='f9e31' type=&quot;text/javascript&quot;&gt;\n/* &lt;![CDATA[ */!function(){try{var t=&quot;currentScript&quot;in document?document.currentScript:function(){for(var t=document.getElementsByTagName(&quot;script&quot;),e=t.length;e--;)if(t[e].getAttribute(&quot;cf-hash&quot;))return t[e]}();if(t&amp;&amp;t.previousSibling){var e,r,n,i,c=t.previousSibling,a=c.getAttribute(&quot;data-cfemail&quot;);if(a){for(e=&quot;&quot;,r=parseInt(a.substr(0,2),16),n=2;a.length-n;n+=2)i=parseInt(a.substr(n,2),16)^r,e+=String.fromCharCode(i);e=document.createTextNode(e),c.parentNode.replaceChild(e,c)}}}catch(u){}}();/* ]]&gt; */&lt;/script&gt;\nFormat settings, CABAC                   : Yes\nFormat settings, ReFrames                : 3 frames\nCodec ID                                 : avc1\nCodec ID/Info                            : Advanced Video Coding\nDuration                                 : 4mn 40s\nDuration_LastFrame                       : -41ms\nBit rate                                 : 3 794 Kbps\nWidth                                    : 1 920 pixels\nHeight                                   : 1 080 pixels\nDisplay aspect ratio                     : 16:9\nFrame rate mode                          : Constant\nFrame rate                               : 23.976 fps\nColor space                              : YUV\nChroma subsampling                       : 4:2:0\nBit depth                                : 8 bits\nScan type                                : Progressive\nBits/(Pixel*Frame)                       : 0.076\nStream size                              : 127 MiB (97%)\nEncoded date                             : UTC 2013-12-11 21:59:44\nTagged date                              : UTC 2013-12-11 21:59:44\n\nAudio\nID                                       : 2\nFormat                                   : AAC\nFormat/Info                              : Advanced Audio Codec\nFormat profile                           : LC\nCodec ID                                 : 40\nDuration                                 : 4mn 41s\nBit rate mode                            : Variable\nBit rate                                 : 126 Kbps\nChannel(s)                               : 2 channels\nChannel positions                        : Front: L R\nSampling rate                            : 44.1 KHz\nCompression mode                         : Lossy\nDelay relative to video                  : 42ms\nStream size                              : 4.21 MiB (3%)\nEncoded date                             : UTC 2013-12-11 21:58:53\nTagged date                              : UTC 2013-12-11 21:58:53\n\nShared By Sbyky\n","torrent":{"xt":"urn:btih:f1756a9041d58ea120a6e5184fb7b7fdbed400f9","amp;dn":"Lupe+Fiasco+Ft.+Ed+Sheeran+-+Old+School+Love+%5BMusic+Video%5D+1080p","amp;tr":["udp%3A%2F%2Ftracker.openbittorrent.com%3A80","udp%3A%2F%2Fopen.demonii.com%3A1337","udp%3A%2F%2Ftracker.coppersurfer.tk%3A6969","udp%3A%2F%2Fexodus.desync.com%3A6969"],"infoHash":"f1756a9041d58ea120a6e5184fb7b7fdbed400f9","infoHashBuffer":{"type":"Buffer","data":[241,117,106,144,65,213,142,161,32,166,229,24,79,183,183,253,190,212,0,249]},"announce":[],"urlList":[]}}